<?xml version="1.0" encoding="UTF-8" standalone="no"?>
<svg width="800" height="600" xmlns="http://www.w3.org/2000/svg">
  <!-- Teléfono -->
  <rect x="250" y="100" width="300" height="400" rx="20" ry="20" fill="#333" />
  <rect x="270" y="130" width="260" height="340" rx="5" ry="5" fill="#111" />
  
  <!-- Pantalla rota -->
  <path d="M 270 130 L 350 200 L 320 280 L 400 320 L 450 250 L 530 350 L 490 400 L 530 470 
           L 270 470 Z" fill="#222" stroke="#666" stroke-width="2" />
  
  <!-- Grietas -->
  <path d="M 350 200 L 380 160 L 450 180 L 420 220 Z" fill="#444" stroke="#888" stroke-width="1" />
  <path d="M 400 320 L 440 290 L 490 310 L 470 350 Z" fill="#444" stroke="#888" stroke-width="1" />
  <path d="M 490 400 L 510 380 L 520 420 L 500 440 Z" fill="#444" stroke="#888" stroke-width="1" />
  
  <!-- Líneas de fractura -->
  <path d="M 350 200 L 320 280 M 320 280 L 400 320 M 400 320 L 450 250 
           M 450 250 L 530 350 M 530 350 L 490 400 M 490 400 L 530 470" 
        fill="none" stroke="#AAA" stroke-width="1" />
  
  <!-- Botón home -->
  <circle cx="400" cy="450" r="15" fill="#222" stroke="#555" stroke-width="1" />
</svg>